<svg width="413" height="160" viewBox="0 0 413 160" fill="none" xmlns="http://www.w3.org/2000/svg">
<path d="M120.192 155.12H95.36V36.592H120.192V155.12ZM87.04 145.52L9.216 151.024V40.688H78.208V62.576H34.56V127.472L87.04 123.632V145.52ZM244.48 155.12H220.16V36.592H244.48V80.624H258.688V102.512H244.48V155.12ZM134.528 150.896V125.808C146.688 120.432 161.152 106.48 161.536 70.256V62.064H136.32V40.816H209.664V62.064H184.576V70.256C184.832 106.48 199.296 120.432 211.456 125.808V150.896C196.096 146.032 181.248 134.896 172.928 115.952C164.736 134.896 149.888 146.032 134.528 150.896Z" fill="white"/>
<rect x="276" y="3" width="134" height="134" stroke="white" stroke-width="6" stroke-dasharray="12 12"/>
<path d="M375.008 95.2C374.624 84.192 374.624 22.368 375.008 12.64C378.464 12.128 389.6 12 394.08 12.64C394.336 26.464 394.464 82.528 394.08 95.2C390.112 95.712 379.488 95.584 375.008 95.2ZM324.32 78.816C299.488 78.816 288.736 67.424 288.736 46.176C288.736 25.056 299.488 13.536 324.32 13.536C349.152 13.536 359.904 25.056 359.904 46.176C359.904 67.424 349.152 78.816 324.32 78.816ZM324.32 62.56C335.968 62.56 340.832 57.312 340.832 46.176C340.832 35.04 335.968 29.792 324.32 29.792C312.416 29.792 307.808 35.04 307.808 46.176C307.808 57.312 312.416 62.56 324.32 62.56ZM300.896 128.224C300.256 118.752 300.512 93.92 300.896 86.368C304.864 85.984 315.36 85.984 319.968 86.368C320.224 92.768 320.224 104.672 319.968 111.584C348.256 111.456 386.656 111.328 396.256 111.584C396.768 116.192 396.768 123.488 396.256 128.224C386.016 128.864 312.544 128.864 300.896 128.224Z" fill="white"/>
</svg>
