<svg width="421" height="116" viewBox="0 0 421 116" fill="none" xmlns="http://www.w3.org/2000/svg">
<path d="M0.824 58.28L50.36 8.744L61.24 19.752L22.712 58.28L61.24 96.936L50.36 107.816L0.824 58.28ZM157.034 0.935997H172.266V115.624H157.034V57.256H146.538V110.632H131.562V3.88H146.538V44.456H157.034V0.935997ZM72.81 81.064C96.106 67.24 105.962 50.472 108.01 27.816H78.442V15.144H123.626C123.626 47.144 114.154 73.384 82.026 92.072L72.81 81.064ZM189.677 6.05599H205.421V19.88H228.845V6.05599H244.589V56.104H189.677V6.05599ZM200.941 75.944V63.912H276.333V94.76H216.813V102.568H279.661V114.856H201.069V83.368H260.717V75.944H200.941ZM205.421 43.816H228.845V31.784H205.421V43.816ZM260.461 59.304V1.064H276.333V23.336H291.565V36.264H276.333V59.304H260.461ZM342.896 5.672L315.376 112.68H299.888L327.536 5.672H342.896ZM420.751 58.28L371.215 107.816L360.335 96.936L398.991 58.28L360.463 19.752L371.215 8.744L420.751 58.28Z" fill="white"/>
</svg>
