<svg width="372" height="120" viewBox="0 0 372 120" fill="none" xmlns="http://www.w3.org/2000/svg">
<path d="M32.544 86.936C40.704 86.936 46.08 80.504 46.08 70.616C46.08 60.824 40.704 54.392 32.544 54.392C24.672 54.392 18.24 61.592 18.24 70.616C18.24 79.64 24.672 86.936 32.544 86.936ZM6.72 117.176V45.08H18.24V52.952C22.368 46.904 30.048 44.984 33.408 44.984C47.616 44.984 57.6 55.64 57.6 70.616C57.6 85.688 47.616 96.344 33.408 96.344C29.952 96.344 22.368 94.616 18.24 88.28V117.176H6.72ZM88.3065 85.592C91.9545 85.592 96.2745 83.576 99.2505 80.6L106.931 88.568C102.419 93.176 94.9305 96.344 88.6905 96.344C73.5225 96.344 62.8665 85.688 62.8665 70.712C62.8665 55.64 73.5225 45.08 88.6905 45.08C95.4105 45.08 102.323 48.152 106.931 52.856L99.2505 60.728C96.2745 57.752 91.9545 55.832 88.3065 55.832C79.9545 55.832 74.3865 61.784 74.3865 70.712C74.3865 79.64 79.9545 85.592 88.3065 85.592ZM135.961 86.84C143.929 86.84 149.113 80.504 149.113 70.712C149.113 61.016 143.929 54.488 135.961 54.488C127.993 54.488 122.809 61.016 122.809 70.712C122.809 80.504 127.993 86.84 135.961 86.84ZM111.289 70.712C111.289 55.64 121.465 45.08 135.961 45.08C150.457 45.08 160.633 55.64 160.633 70.712C160.633 85.784 150.457 96.344 135.961 96.344C121.465 96.344 111.289 85.784 111.289 70.712ZM180.119 54.296C182.903 48.824 189.239 44.984 195.479 44.984V55.256C186.167 55.256 180.119 63.8 180.119 71.096V96.056H168.695V45.08H180.119V54.296ZM209.701 84.824C213.445 84.824 216.133 87.512 216.133 91.256C216.133 95 213.445 97.784 209.701 97.784C205.861 97.784 203.173 95 203.173 91.256C203.173 87.512 205.861 84.824 209.701 84.824ZM298.136 67.928C298.136 60.248 293.912 54.776 287.864 54.776C281.336 54.776 276.824 60.632 276.824 67.544V96.056H265.304V67.928C265.304 60.248 261.176 54.776 255.224 54.776C248.6 54.776 243.992 60.824 243.992 68.408V96.056H232.472V45.08H243.992V53.72C246.776 48.824 252.152 45.368 256.856 45.368C263.096 45.368 269.336 49.496 272.024 55.448C275.384 49.496 282.104 45.368 288.344 45.368C300.824 45.368 309.656 54.584 309.656 67.64V96.056H298.136V67.928ZM356.477 66.392C355.613 60.728 351.869 54.488 343.709 54.488C336.509 54.488 331.037 59.864 329.885 66.392H356.477ZM319.133 70.712C319.133 55.64 329.213 45.08 343.613 45.08C359.549 45.08 364.541 58.136 364.829 58.808C367.901 65.72 366.941 73.592 366.941 74.84H329.885C331.037 81.944 337.277 86.744 343.709 86.744C352.733 86.744 355.517 81.464 355.805 81.08L365.117 85.016C365.117 85.016 360.413 96.248 343.613 96.248C329.213 96.248 319.133 85.784 319.133 70.712Z" fill="#111827"/>
<rect x="24" y="102" width="344" height="15" fill="#3B82F6"/>
</svg>
