<svg width="1093" height="127" viewBox="0 0 1093 127" fill="none" xmlns="http://www.w3.org/2000/svg">
<path d="M50.552 57.856C49.4 50.304 44.408 41.984 33.528 41.984C23.928 41.984 16.632 49.152 15.096 57.856H50.552ZM0.76 63.616C0.76 43.52 14.2 29.44 33.4 29.44C54.648 29.44 61.304 46.848 61.688 47.744C65.784 56.96 64.504 67.456 64.504 69.12H15.096C16.632 78.592 24.952 84.992 33.528 84.992C45.56 84.992 49.272 77.952 49.656 77.44L62.072 82.688C62.072 82.688 55.8 97.664 33.4 97.664C14.2 97.664 0.76 83.712 0.76 63.616ZM139.017 29.44L110.089 97.408H96.649L68.105 29.44H84.745L103.305 77.952L122.249 29.44H139.017ZM191.427 57.856C190.275 50.304 185.283 41.984 174.403 41.984C164.803 41.984 157.507 49.152 155.971 57.856H191.427ZM141.635 63.616C141.635 43.52 155.075 29.44 174.275 29.44C195.523 29.44 202.179 46.848 202.563 47.744C206.659 56.96 205.379 67.456 205.379 69.12H155.971C157.507 78.592 165.827 84.992 174.403 84.992C186.435 84.992 190.147 77.952 190.531 77.44L202.947 82.688C202.947 82.688 196.675 97.664 174.275 97.664C155.075 97.664 141.635 83.712 141.635 63.616ZM232.409 41.728C236.121 34.432 244.569 29.312 252.889 29.312V43.008C240.473 43.008 232.409 54.4 232.409 64.128V97.408H217.177V29.44H232.409V41.728ZM291.691 125.568H274.923L289.387 91.52L261.739 29.44H278.635L297.323 74.752L315.499 29.44H332.267L291.691 125.568ZM386.53 94.336C383.33 95.744 380.514 97.408 373.09 97.408C361.186 97.408 352.866 88.576 352.866 75.904V43.52H340.962V30.336H352.866V11.264H368.226V30.336H385.25V43.52H368.226V75.904C368.226 80.512 370.786 83.84 374.498 84.096C377.826 84.352 381.41 82.176 381.666 82.176L386.53 94.336ZM444.049 62.208C444.049 50.688 438.417 43.136 429.969 43.136C420.241 43.136 412.945 52.096 412.945 63.232V97.408H397.585V2.17599H412.945V39.424C417.425 33.28 424.849 30.592 430.097 30.592C447.249 30.592 459.409 42.752 459.409 60.16V97.408H444.049V62.208ZM475.219 30.08H490.579V97.408H475.219V30.08ZM474.579 8.576C474.579 3.712 478.035 0.255997 482.899 0.255997C487.763 0.255997 491.347 3.712 491.347 8.576C491.347 13.568 487.763 17.024 482.899 17.024C478.035 17.024 474.579 13.568 474.579 8.576ZM554.93 60.8C554.93 49.28 549.298 42.368 539.186 42.368C529.97 42.368 522.546 49.792 522.802 60.8V97.408H507.442V29.44H522.802V40.832C526.642 34.432 533.81 29.824 541.106 29.824C554.418 29.824 570.29 36.992 570.29 60.416V97.408H554.93V60.8ZM615.04 85.12C626.304 85.12 633.984 75.264 633.984 63.488C633.984 52.096 626.176 42.112 615.04 42.112C604.288 42.112 597.12 50.688 597.12 63.488C597.12 76.544 604.288 85.12 615.04 85.12ZM581.76 63.616C581.76 43.648 595.072 29.696 613.888 29.696C620.416 29.696 628.992 32.512 633.984 40.064V29.44H649.344V93.44C649.216 112.64 636.416 126.208 615.168 126.208C603.776 126.208 592.64 122.496 586.112 112L598.016 103.68C603.008 110.464 607.616 112.896 615.168 112.896C627.328 112.896 633.984 105.6 633.984 95.36V86.912C628.224 94.72 620.032 97.792 613.888 97.792C595.072 97.792 581.76 83.584 581.76 63.616ZM696.469 30.08H711.829V97.408H696.469V30.08ZM695.829 8.576C695.829 3.712 699.285 0.255997 704.149 0.255997C709.013 0.255997 712.597 3.712 712.597 8.576C712.597 13.568 709.013 17.024 704.149 17.024C699.285 17.024 695.829 13.568 695.829 8.576ZM737.012 77.568C740.98 82.816 747.124 85.632 751.988 85.76C758.644 85.76 763.508 82.432 763.636 77.312C763.764 67.84 728.308 70.4 728.82 48.512C729.076 36.608 739.444 28.672 754.164 28.928C761.972 29.184 771.188 33.152 776.308 39.808L766.068 48.384C762.868 44.032 757.748 41.6 753.78 41.6C748.148 41.472 744.18 44.288 744.18 48.512C744.052 58.496 779.508 55.424 778.996 77.568C778.74 90.112 767.476 98.688 751.604 98.304C742.9 98.176 732.66 93.568 726.644 86.016L737.012 77.568ZM862.881 52.224C872.993 52.224 879.521 44.928 879.521 33.92C879.521 22.784 872.865 15.488 862.753 15.488H838.817V52.224H862.881ZM823.457 97.408V2.17599H863.393C881.825 2.17599 894.881 15.232 894.881 33.92C894.881 52.48 881.825 65.536 863.393 65.536H838.817V97.408H823.457ZM903.165 2.17599H918.525V97.408H903.165V2.17599ZM949.43 67.072C949.43 77.952 955.958 84.736 965.174 84.736C975.03 84.608 981.814 77.056 981.558 66.304V29.44H996.918V97.408H981.558V86.272C977.846 92.672 970.166 97.28 963.254 97.28C946.102 97.28 934.07 85.504 934.07 67.456V29.44H949.43V67.072ZM1020.39 77.568C1024.36 82.816 1030.5 85.632 1035.36 85.76C1042.02 85.76 1046.88 82.432 1047.01 77.312C1047.14 67.84 1011.68 70.4 1012.2 48.512C1012.45 36.608 1022.82 28.672 1037.54 28.928C1045.35 29.184 1054.56 33.152 1059.68 39.808L1049.44 48.384C1046.24 44.032 1041.12 41.6 1037.16 41.6C1031.52 41.472 1027.56 44.288 1027.56 48.512C1027.43 58.496 1062.88 55.424 1062.37 77.568C1062.12 90.112 1050.85 98.688 1034.98 98.304C1026.28 98.176 1016.04 93.568 1010.02 86.016L1020.39 77.568ZM1083.48 82.432C1088.47 82.432 1092.05 86.016 1092.05 91.008C1092.05 96 1088.47 99.712 1083.48 99.712C1078.36 99.712 1074.77 96 1074.77 91.008C1074.77 86.016 1078.36 82.432 1083.48 82.432Z" fill="url(#paint0_linear_4_2)"/>
<defs>
<linearGradient id="paint0_linear_4_2" x1="-5" y1="49" x2="1105" y2="49" gradientUnits="userSpaceOnUse">
<stop stop-color="#60A5FA"/>
<stop offset="1" stop-color="#C084FC"/>
</linearGradient>
</defs>
</svg>
