<svg width="352" height="134" viewBox="0 0 352 134" fill="none" xmlns="http://www.w3.org/2000/svg">
<path d="M71.68 69.288C65.28 66.856 51.712 60.968 41.6 56.36C32.256 61.864 20.096 68.52 11.904 72.488C8.32 68.776 4.736 62.888 3.072 59.048C7.168 56.488 20.864 49.192 31.232 43.816V31.656C18.944 31.656 8.192 31.656 4.224 31.4C3.712 26.28 3.712 20.52 4.224 15.912C8.832 15.784 19.072 15.656 31.104 15.656C31.104 12.712 31.232 9.768 31.36 7.71999C34.816 7.07999 46.72 6.952 51.2 7.71999C51.328 9.768 51.456 12.712 51.456 15.656C60.672 15.656 69.632 15.784 76.928 15.912C77.312 20.776 77.312 26.92 76.928 31.4C72.064 31.528 62.336 31.528 51.328 31.656V43.432C61.184 47.4 73.6 52.648 79.36 55.336C77.952 59.432 74.624 65.96 71.68 69.288ZM73.088 34.344C76.288 34.216 83.712 34.216 90.752 34.216C90.752 23.592 90.88 13.864 91.008 9.63999C94.464 9.128 105.6 8.99999 110.08 9.63999C110.336 23.464 110.464 56.872 110.08 69.544C106.112 70.056 95.488 69.928 91.008 69.544C90.88 65.832 90.752 58.792 90.752 50.728C83.84 50.728 76.416 50.6 73.088 50.472C72.704 45.608 72.704 39.208 73.088 34.344ZM34.304 110.12H112.256C112.768 114.344 112.512 121.128 112.256 125.224C103.936 125.992 31.36 125.992 14.976 125.224C14.464 118.184 14.208 104.616 14.976 92.84H90.752V89.512H15.232C14.72 85.288 14.72 77.352 15.232 74.408C52.48 74.024 94.336 73.896 110.08 74.28C110.72 79.272 110.72 101.16 110.08 106.792H34.304V110.12ZM226.038 75.176C215.542 75.688 141.174 75.56 128.63 75.176C127.862 60.2 127.99 28.968 128.63 14.248C141.046 13.608 210.678 13.864 223.478 14.248C223.99 19.112 223.99 26.92 223.478 31.784C214.518 32.04 158.07 32.04 148.47 31.784C148.342 37.672 148.342 52.392 148.47 57.896C158.582 57.896 216.566 57.768 226.038 57.896C226.422 62.888 226.422 71.08 226.038 75.176ZM231.67 105.128C232.182 109.864 232.182 116.392 231.67 121.768C220.662 122.536 136.694 122.28 121.59 121.768C121.078 117.16 121.078 110.12 121.59 105.128C131.958 104.872 148.982 104.872 166.646 104.872C166.646 96.424 166.646 86.824 166.902 82.344C170.742 81.576 181.75 81.704 186.486 82.344C186.614 87.464 186.614 96.936 186.614 104.872C207.478 104.872 226.038 105 231.67 105.128Z" fill="white"/>
<mask id="path-2-inside-1_9_18" fill="white">
<path d="M246 11V11C304.542 11 352 58.4578 352 117V123H246V11Z"/>
</mask>
<path d="M246 11H352H246ZM377 148H246V98H350.302L350.284 98.0033C351.426 104.271 352 110.629 352 117L377 148ZM246 123V11V123ZM246 11C318.349 11 377 69.6507 377 142V148L327 98V117C327 58.4578 290.735 11 246 11Z" fill="url(#paint0_linear_9_18)" mask="url(#path-2-inside-1_9_18)"/>
<defs>
<linearGradient id="paint0_linear_9_18" x1="352" y1="113.5" x2="196.5" y2="78" gradientUnits="userSpaceOnUse">
<stop stop-color="white"/>
<stop offset="1" stop-color="white" stop-opacity="0"/>
</linearGradient>
</defs>
</svg>
