<svg width="304" height="50" viewBox="0 0 304 50" fill="none" xmlns="http://www.w3.org/2000/svg">
<path d="M5.256 38.784C7.24 41.408 10.312 42.816 12.744 42.88C16.072 42.88 18.504 41.216 18.568 38.656C18.632 33.92 0.904 35.2 1.16 24.256C1.288 18.304 6.472 14.336 13.832 14.464C17.736 14.592 22.344 16.576 24.904 19.904L19.784 24.192C18.184 22.016 15.624 20.8 13.64 20.8C10.824 20.736 8.84 22.144 8.84 24.256C8.776 29.248 26.504 27.712 26.248 38.784C26.12 45.056 20.488 49.344 12.552 49.152C8.2 49.088 3.08 46.784 0.072 43.008L5.256 38.784ZM32.7345 15.04H40.4145V48.704H32.7345V15.04ZM32.4145 4.288C32.4145 1.856 34.1425 0.127998 36.5745 0.127998C39.0065 0.127998 40.7985 1.856 40.7985 4.288C40.7985 6.784 39.0065 8.512 36.5745 8.512C34.1425 8.512 32.4145 6.784 32.4145 4.288ZM72.59 30.4C72.59 24.64 69.774 21.184 64.718 21.184C60.11 21.184 56.398 24.896 56.526 30.4V48.704H48.846V14.72H56.526V20.416C58.446 17.216 62.03 14.912 65.678 14.912C72.334 14.912 80.27 18.496 80.27 30.208V48.704H72.59V30.4ZM101.621 41.728C104.053 41.728 106.933 40.384 108.917 38.4L114.037 43.712C111.029 46.784 106.037 48.896 101.877 48.896C91.765 48.896 84.661 41.792 84.661 31.808C84.661 21.76 91.765 14.72 101.877 14.72C106.357 14.72 110.965 16.768 114.037 19.904L108.917 25.152C106.933 23.168 104.053 21.888 101.621 21.888C96.053 21.888 92.341 25.856 92.341 31.808C92.341 37.76 96.053 41.728 101.621 41.728ZM141.839 28.928C141.263 25.152 138.767 20.992 133.327 20.992C128.527 20.992 124.879 24.576 124.111 28.928H141.839ZM116.943 31.808C116.943 21.76 123.663 14.72 133.263 14.72C143.887 14.72 147.215 23.424 147.407 23.872C149.455 28.48 148.815 33.728 148.815 34.56H124.111C124.879 39.296 129.039 42.496 133.327 42.496C139.343 42.496 141.199 38.976 141.391 38.72L147.599 41.344C147.599 41.344 144.463 48.832 133.263 48.832C123.663 48.832 116.943 41.856 116.943 31.808ZM170.906 41.536C180.314 32.512 192.602 24.32 192.602 16.704C192.602 11.712 189.466 8.192 184.986 8.192C181.466 8.192 177.946 10.688 176.345 14.272L169.69 11.264C172.378 5.312 178.714 1.088 184.986 1.088C194.01 1.088 200.282 7.552 200.282 16.704C200.282 26.496 190.426 34.496 181.978 41.536H200.986V48.256H171.546L170.906 41.536ZM224.422 41.984C230.566 41.984 234.662 35.136 234.662 24.832C234.662 14.592 230.566 7.744 224.422 7.744C218.214 7.744 214.118 14.592 214.118 24.832C214.118 35.136 218.214 41.984 224.422 41.984ZM206.438 24.832C206.438 10.88 213.862 1.088 224.422 1.088C234.918 1.088 242.342 10.88 242.342 24.832C242.342 38.848 234.918 48.704 224.422 48.704C213.862 48.704 206.438 38.848 206.438 24.832ZM248.968 41.536C258.376 32.512 270.664 24.32 270.664 16.704C270.664 11.712 267.528 8.192 263.048 8.192C259.528 8.192 256.008 10.688 254.408 14.272L247.752 11.264C250.44 5.312 256.776 1.088 263.048 1.088C272.072 1.088 278.344 7.552 278.344 16.704C278.344 26.496 268.488 34.496 260.04 41.536H279.048V48.256H249.608L248.968 41.536ZM303.317 1.536V48.256L295.637 48.192V9.664L286.997 13.952L284.117 7.424L295.637 1.536H303.317Z" fill="#D1D5DB"/>
</svg>
