<svg width="889" height="291" viewBox="0 0 889 291" fill="none" xmlns="http://www.w3.org/2000/svg">
<mask id="mask0_2_4" style="mask-type:alpha" maskUnits="userSpaceOnUse" x="41" y="21" width="170" height="180">
<path d="M100.385 21.1406L210.97 98.5734L177.286 200.727L41.3065 105.513L100.385 21.1406Z" fill="#D9D9D9"/>
</mask>
<g mask="url(#mask0_2_4)">
<path d="M79.0372 69.0627C92.1835 50.2878 118.061 45.725 136.835 58.8713L233.905 126.84L186.298 194.83L89.2286 126.861C70.4538 113.715 65.891 87.8375 79.0372 69.0627Z" stroke="white" stroke-width="20"/>
</g>
<circle cx="229.049" cy="118.792" r="24.5" transform="rotate(35 229.049 118.792)" stroke="white" stroke-width="15"/>
<circle cx="68.7327" cy="173.567" r="24.5" transform="rotate(35 68.7327 173.567)" stroke="white" stroke-width="15"/>
<mask id="mask1_2_4" style="mask-type:alpha" maskUnits="userSpaceOnUse" x="82" y="91" width="171" height="180">
<path d="M193.565 270.811L82.9795 193.378L116.664 91.2243L252.643 186.438L193.565 270.811Z" fill="#D9D9D9"/>
</mask>
<g mask="url(#mask1_2_4)">
<path d="M214.913 222.889C201.766 241.663 175.889 246.226 157.114 233.08L60.045 165.111L107.652 97.1215L204.721 165.09C223.496 178.237 228.059 204.114 214.913 222.889Z" stroke="white" stroke-width="20"/>
</g>
<path d="M332.165 131.6C338.165 120.8 350.765 113.2 362.765 113.2V137.2C343.565 137.2 332.165 155.4 332.165 169V220.8H305.365V113.4H332.165V131.6ZM422.372 199.8C437.572 199.8 449.972 185.8 450.172 167.6C449.972 149.4 437.572 135.4 422.372 135.4C406.572 135.4 396.172 148 396.172 167.6C396.172 187 406.572 199.8 422.372 199.8ZM368.972 167.6C368.972 136 389.972 113.6 419.772 113.6C430.972 113.6 442.172 118.6 450.172 128.6V113.4H477.372V220.8L450.172 221V206.4C442.172 216.4 430.972 221.4 419.772 221.4C389.972 221.4 368.972 199.2 368.972 167.6ZM502.315 114.6H529.515V220.8H502.315V114.6ZM501.515 81.6C501.515 73.2 507.515 67 515.915 67C524.315 67 530.315 73.2 530.315 81.6C530.315 90 524.315 96 515.915 96C507.515 96 501.515 90 501.515 81.6ZM553.394 70.8H580.594V220.8H553.394V70.8ZM605.44 114.6H632.64V220.8H605.44V114.6ZM604.64 81.6C604.64 73.2 610.64 67 619.04 67C627.44 67 633.44 73.2 633.44 81.6C633.44 90 627.44 96 619.04 96C610.64 96 604.64 90 604.64 81.6ZM733.719 164.8C733.719 146.4 725.319 135.8 709.319 135.8C696.319 136 685.119 146.8 685.519 164.8V220.8H658.319V113.4H685.519V131.2C691.119 121.2 701.919 114 713.519 114C733.119 114 760.919 123.6 760.919 164.4V220.8H733.719V164.8ZM809.565 70.8V154L844.765 113.4H881.565L838.965 161.6L878.965 220.8H846.365L819.365 181.2L809.565 193V220.8H782.365V70.8H809.565Z" fill="white"/>
</svg>
